<svg xmlns="http://www.w3.org/2000/svg" width="320" height="90" viewBox="0 0 320 90">
  <defs>
    <style>
      @import url('https://fonts.googleapis.com/css2?family=Plus+Jakarta+Sans:wght@400;700&amp;display=swap');
    </style>
  </defs>

  <!-- Background -->
  <rect width="320" height="90" fill="#002244"/>

  <!-- Compass — embedded from Compass_small_solid.svg, scaled to 56x56, centered vertically -->
  <svg x="20" y="17" width="56" height="56" viewBox="0 0 600 654" preserveAspectRatio="xMidYMid meet">
    <g transform="translate(0,654) scale(0.1,-0.1)" fill="#B0B7BC" stroke="none">
      <path d="M2910 5438 c-6 -13 -23 -115 -40 -227 -16 -113 -33 -208 -37 -212 -5 -4 -66 -17 -138 -28 -764 -118 -1345 -709 -1440 -1464 -7 -60 -16 -111 -19 -114 -9 -9 -124 -30 -293 -53 -256 -36 -250 -47 56 -97 123 -20 229 -42 235 -49 7 -7 16 -50 19 -96 9 -136 75 -366 150 -525 249 -530 772 -901 1350 -958 83 -8 80 -2 112 -196 13 -85 30 -184 36 -221 11 -67 31 -90 43 -50 7 23 53 309 63 392 l8 65 105 12 c758 88 1356 666 1475 1428 9 55 18 114 20 131 l5 30 148 23 c272 40 359 64 308 84 -8 3 -97 18 -198 32 -232 33 -256 40 -263 68 -2 12 -11 73 -20 134 -30 216 -118 448 -250 658 -265 421 -672 685 -1182 766 -109 17 -144 26 -147 38 -4 14 -37 228 -52 336 -15 106 -34 139 -54 93z m95 -590 c25 -150 53 -318 61 -372 27 -176 81 -506 114 -694 l33 -184 -129 -132 c-71 -73 -132 -134 -136 -135 -5 0 -8 412 -7 917 0 555 4 908 9 895 5 -13 30 -146 55 -295z m-185 32 c0 -55 -22 -185 -35 -206 -10 -16 -35 -25 -101 -38 -119 -24 -250 -69 -369 -126 -97 -48 -146 -79 -256 -168 -55 -45 -55 -45 -132 -26 l-29 7 21 -42 c24 -47 25 -45 -39 -121 -134 -158 -243 -395 -295 -642 l-17 -76 -86 -16 c-133 -24 -162 -22 -162 12 0 59 62 328 96 415 192 498 605 872 1109 1006 236 62 295 66 295 21z m484 -14 c478 -121 863 -435 1077 -881 79 -164 149 -413 149 -529 l0 -46 -47 0 c-56 0 -183 26 -196 39 -5 5 -15 40 -22 78 -43 226 -127 415 -269 608 -68 93 -78 123 -51 159 30 39 17 48 -33 22 l-47 -24 -65 49 c-221 168 -402 254 -621 295 -103 19 -119 30 -119 83 0 20 -7 67 -15 105 -8 38 -12 73 -8 79 9 15 119 0 267 -37z m-544 -368 c0 -18 -16 -136 -35 -263 -20 -126 -38 -250 -42 -273 -3 -24 -12 -46 -19 -49 -8 -3 -83 34 -166 83 -84 48 -206 117 -270 152 -65 35 -118 68 -118 72 0 26 188 153 311 209 63 30 288 100 322 101 13 0 17 -8 17 -32z m463 2 c177 -44 504 -217 515 -272 3 -15 -66 -59 -373 -237 -131 -75 -154 -86 -164 -76 -5 6 -30 134 -56 285 -25 151 -48 287 -52 303 -7 33 -17 33 130 -3z m-928 -430 c88 -53 204 -121 259 -150 l99 -53 -7 -84 c-6 -83 -18 -123 -36 -123 -30 0 -536 503 -524 521 7 11 13 8 209 -111z m1523 68 c-14 -24 -78 -135 -144 -248 -66 -113 -133 -228 -149 -257 -33 -62 -50 -68 -155 -53 -79 11 -95 22 -78 54 13 26 540 557 546 551 2 -2 -7 -23 -20 -47z m-1780 -53 c12 -25 54 -100 93 -167 138 -236 202 -349 198 -352 -2 -1 -53 -10 -114 -19 -60 -9 -197 -30 -304 -47 -107 -17 -198 -27 -202 -23 -37 37 116 405 239 576 65 91 62 89 90 32z m1899 -75 c89 -133 165 -300 198 -437 27 -112 19 -117 -139 -89 -45 8 -130 22 -191 31 -149 22 -267 43 -273 49 -2 3 36 74 85 158 50 84 116 200 148 258 32 58 64 115 72 128 l14 23 18 -23 c10 -13 40 -57 68 -98z m-1195 -550 c75 -76 126 -134 122 -141 -6 -10 -361 -10 -1659 1 -133 1 -118 10 70 39 77 12 187 31 245 41 58 10 200 33 315 50 116 17 257 40 315 50 217 39 435 81 439 86 12 12 34 -6 153 -126z m1948 -181 c58 0 101 -2 95 -4 -16 -7 -531 -93 -750 -126 -110 -16 -222 -34 -250 -39 -27 -6 -165 -31 -305 -56 l-255 -46 -127 134 -126 133 51 5 c42 4 1240 4 1667 -1z m-1773 -456 c-4 -236 -7 -641 -7 -902 0 -261 -2 -472 -5 -469 -7 6 -42 208 -95 543 -45 285 -93 568 -140 829 l-31 170 128 128 c70 70 134 128 142 128 12 0 13 -61 8 -427z m-1445 353 c110 -18 104 -13 117 -93 37 -218 127 -428 255 -601 101 -135 98 -130 73 -174 -26 -48 -19 -55 30 -30 45 24 39 26 165 -68 155 -117 335 -198 553 -246 61 -14 113 -28 116 -32 11 -11 41 -211 35 -227 -18 -48 -358 33 -580 138 -476 226 -811 678 -901 1215 -25 146 -26 144 137 118z m3060 -41 c-4 -60 -54 -277 -84 -360 -201 -571 -695 -984 -1286 -1075 -145 -22 -142 -23 -131 32 5 24 14 78 21 121 13 91 9 88 138 113 188 37 397 129 546 243 126 95 123 94 173 69 53 -26 57 -21 30 36 -18 40 -19 49 -8 65 8 10 42 55 76 100 119 157 218 373 249 541 22 128 20 125 116 149 46 11 101 19 123 18 l40 -2 -3 -50z m-2629 -30 c83 -14 208 -34 276 -45 151 -25 145 -21 117 -73 -12 -23 -44 -82 -71 -132 -90 -168 -207 -375 -216 -381 -11 -6 -95 108 -151 205 -75 132 -169 398 -154 437 7 19 22 18 199 -11z m2240 5 c19 -72 -82 -331 -204 -521 -66 -103 -86 -120 -106 -94 -44 60 -293 502 -293 521 0 8 20 16 48 20 26 3 151 26 277 49 272 51 271 51 278 25z m-1648 -100 c89 -14 95 -20 57 -67 -53 -66 -511 -517 -518 -510 -4 4 30 71 76 149 45 79 119 206 163 283 86 149 100 166 132 159 11 -2 52 -9 90 -14z m1295 -610 c0 -12 -16 -3 -240 130 -80 48 -191 112 -247 144 -86 47 -103 61 -103 81 0 30 19 174 27 199 6 20 563 -529 563 -554z m-1117 230 c4 -30 23 -154 42 -275 48 -306 48 -281 0 -277 -122 10 -413 137 -537 234 -77 61 -80 68 -35 90 17 8 136 77 262 152 127 75 237 135 245 134 10 -2 18 -22 23 -58z m681 -24 c77 -46 194 -114 259 -151 126 -72 141 -87 111 -111 -105 -84 -292 -184 -429 -229 -101 -33 -205 -55 -205 -43 0 6 23 153 64 418 30 186 33 200 48 200 6 0 74 -38 152 -84z"/>
    </g>
  </svg>

  <!-- Stacked text -->
  <text
    x="92" y="44"
    font-family="'Plus Jakarta Sans', sans-serif"
    font-size="28" font-weight="700"
    fill="#B0B7BC"
    letter-spacing="-0.3"
  >Soundings</text>
  <text
    x="94" y="65"
    font-family="'Plus Jakarta Sans', sans-serif"
    font-size="14" font-weight="400"
    fill="#B0B7BC"
    letter-spacing="2.5"
    opacity="0.75"
  >EDUCATION</text>
</svg>
