<?xml version="1.0" standalone="no"?>
<!DOCTYPE svg PUBLIC "-//W3C//DTD SVG 20010904//EN"
 "http://www.w3.org/TR/2001/REC-SVG-20010904/DTD/svg10.dtd">
<svg version="1.0" xmlns="http://www.w3.org/2000/svg"
 width="398.000000pt" height="434.000000pt" viewBox="0 0 398.000000 434.000000"
 preserveAspectRatio="xMidYMid meet">
<g transform="translate(0.000000,434.000000) scale(0.100000,-0.100000)"
fill="#000000" stroke="none">
<path d="M1926 3593 c-2 -16 -12 -82 -22 -148 -9 -66 -20 -124 -24 -128 -4 -5
-42 -13 -84 -18 -100 -13 -232 -52 -332 -98 -340 -160 -597 -519 -631 -883 -4
-50 -10 -69 -22 -72 -9 -3 -79 -15 -156 -27 -77 -11 -142 -23 -144 -25 -11
-11 20 -19 152 -41 78 -12 148 -25 154 -28 7 -2 13 -20 13 -39 0 -104 53 -284
123 -421 161 -311 485 -541 822 -586 50 -6 95 -13 100 -14 6 -1 20 -72 33
-156 24 -155 27 -168 38 -156 6 5 54 283 54 310 0 4 15 7 34 7 19 0 70 7 114
15 475 90 836 473 902 956 6 46 13 85 14 86 1 1 66 12 144 24 135 22 173 32
161 43 -3 3 -70 15 -150 27 -79 12 -148 25 -152 29 -5 4 -13 43 -18 86 -14
118 -45 216 -109 349 -160 330 -468 556 -832 611 -56 8 -104 17 -106 18 -1 2
-12 62 -23 132 -24 158 -27 174 -38 174 -5 0 -12 -12 -15 -27z m144 -832 l61
-375 -91 -90 -90 -91 1 625 1 625 28 -160 c16 -88 56 -328 90 -534z m-204 437
c-11 -96 -15 -108 -45 -113 -207 -42 -346 -105 -458 -208 -31 -29 -41 -30 -87
-12 -17 8 -17 6 -2 -24 16 -30 16 -32 -9 -59 -88 -92 -176 -270 -205 -412
l-17 -85 -54 -12 c-30 -6 -69 -12 -87 -12 -37 -1 -36 -15 -12 126 62 368 355
701 721 822 73 24 188 49 233 50 l29 1 -7 -62z m274 46 c164 -31 330 -107 463
-213 221 -176 370 -441 402 -713 7 -67 9 -66 -102 -47 -52 9 -64 15 -67 33
-35 186 -87 311 -182 435 -53 69 -55 75 -43 100 7 14 15 30 17 34 2 4 -11 0
-30 -9 l-34 -16 -75 56 c-124 94 -251 150 -393 175 -33 6 -60 11 -61 11 -1 0
-5 24 -8 53 -4 29 -10 67 -13 85 -6 29 -4 32 19 32 13 0 62 -7 107 -16z m-320
-351 c-9 -59 -23 -148 -30 -198 -7 -49 -16 -95 -19 -101 -4 -7 -74 29 -181 92
-96 57 -179 105 -185 107 -28 12 120 115 225 158 59 23 191 59 201 53 3 -2 -2
-52 -11 -111z m400 71 c62 -22 160 -76 220 -121 39 -29 47 -40 38 -48 -19 -17
-344 -205 -354 -205 -7 0 -31 130 -72 392 l-4 27 63 -15 c35 -8 84 -21 109
-30z m-712 -253 c53 -31 132 -77 175 -102 l78 -44 -7 -60 c-12 -108 -1 -114
-214 101 -204 205 -205 208 -32 105z m1031 47 c-11 -21 -185 -325 -213 -371
-9 -16 -19 -18 -66 -13 -116 14 -123 -3 91 212 107 107 195 194 197 194 1 0
-3 -10 -9 -22z m-1194 -427 c-113 -18 -209 -31 -212 -27 -12 12 27 147 67 231
20 44 58 109 84 144 l48 63 109 -188 109 -189 -205 -34z m1282 309 c49 -72
101 -193 117 -272 12 -57 11 -63 -4 -66 -17 -3 -392 57 -399 63 -2 2 45 88
105 190 l108 186 18 -23 c10 -13 35 -48 55 -78z m-802 -350 c49 -49 83 -90 75
-91 -37 -2 -1195 3 -1197 5 -2 2 183 33 409 70 227 37 458 76 513 86 55 10
102 19 105 19 3 1 46 -39 95 -89z m1364 -114 c-2 -2 -239 -43 -527 -91 l-523
-87 -84 88 c-47 49 -85 90 -85 91 0 2 275 3 612 3 336 0 609 -2 607 -4z
m-1253 -223 c-3 -115 -6 -390 -7 -613 l-1 -405 -88 525 -88 525 86 88 c48 48
90 87 95 87 5 0 6 -93 3 -207z m-962 154 l70 -12 17 -85 c28 -141 84 -264 174
-378 56 -72 57 -73 40 -98 -21 -33 -14 -40 18 -19 25 16 27 15 81 -28 109 -89
251 -156 389 -183 l85 -17 11 -62 c17 -97 16 -105 -18 -105 -94 0 -290 60
-410 126 -144 79 -282 203 -371 335 -92 134 -169 341 -182 487 -6 60 -11 57
96 39z m2032 -44 c-11 -90 -52 -236 -90 -317 -75 -163 -203 -320 -346 -426
-137 -101 -342 -183 -493 -197 l-70 -6 7 44 c4 24 10 63 13 86 5 40 7 42 47
48 148 23 312 94 424 185 61 49 63 50 92 35 40 -21 42 -20 24 19 l-16 33 45
56 c88 108 170 287 183 402 4 31 12 59 18 63 13 8 110 29 145 31 23 1 23 -1
17 -56z m-1651 -18 c94 -15 175 -28 182 -30 11 -4 -194 -375 -207 -375 -9 0
-84 108 -117 169 -34 63 -83 211 -83 250 0 20 4 23 28 18 15 -3 104 -17 197
-32z m1395 6 c0 -75 -69 -239 -148 -350 -42 -60 -46 -63 -59 -45 -37 50 -204
347 -198 352 5 5 344 66 393 71 7 1 12 -11 12 -28z m-1083 -56 c24 -4 45 -10
47 -14 6 -9 -361 -377 -368 -370 -3 3 40 84 96 180 139 240 125 221 156 215
15 -3 46 -8 69 -11z m678 -226 c190 -190 197 -198 140 -166 -69 38 -334 192
-353 205 -10 7 -10 24 -1 85 6 42 12 77 13 77 1 0 91 -90 201 -201z m-572 -11
c33 -192 60 -378 56 -383 -3 -3 -41 4 -85 15 -99 25 -246 97 -304 148 l-44 39
179 106 c99 59 183 107 186 107 4 0 9 -15 12 -32z m443 -21 c49 -29 131 -77
182 -106 70 -41 90 -57 82 -66 -22 -27 -156 -109 -220 -136 -67 -29 -199 -64
-207 -56 -4 5 53 380 62 405 2 6 6 12 8 12 3 0 44 -24 93 -53z"/>
<path d="M3433 2299 c14 -8 17 -24 17 -89 0 -65 -3 -81 -17 -89 -13 -8 6 -10
72 -8 l90 2 3 35 2 35 -21 -27 c-14 -19 -30 -28 -50 -28 -26 0 -29 3 -29 35 0
38 19 48 27 15 10 -37 23 -20 23 30 0 50 -13 67 -23 30 -8 -33 -27 -23 -27 15
0 28 4 35 19 35 30 0 51 -11 51 -26 0 -8 5 -14 10 -14 6 0 10 14 10 30 l0 30
-87 0 c-65 -1 -83 -3 -70 -11z"/>
<path d="M1884 644 c-16 -23 -16 -29 -3 -52 8 -15 31 -35 52 -46 38 -20 50
-52 22 -62 -19 -8 -65 22 -65 41 0 8 -4 15 -10 15 -5 0 -10 -16 -10 -36 0 -24
4 -34 13 -31 6 2 22 0 35 -4 24 -9 72 5 84 24 4 7 8 25 8 40 0 23 -9 34 -50
59 -51 32 -62 51 -35 62 20 7 51 -12 64 -39 8 -17 10 -15 10 15 1 35 1 35 -48
38 -45 3 -52 0 -67 -24z"/>
</g>
</svg>
