<?xml version="1.0" standalone="no"?>
<!DOCTYPE svg PUBLIC "-//W3C//DTD SVG 20010904//EN"
 "http://www.w3.org/TR/2001/REC-SVG-20010904/DTD/svg10.dtd">
<svg version="1.0" xmlns="http://www.w3.org/2000/svg"
 width="796.000000pt" height="868.000000pt" viewBox="0 0 796.000000 868.000000"
 preserveAspectRatio="xMidYMid meet">
<g transform="translate(0.000000,868.000000) scale(0.100000,-0.100000)"
fill="#000000" stroke="none">
<path d="M3855 7228 c-2 -7 -11 -67 -20 -133 -8 -66 -22 -165 -30 -220 -8 -55
-21 -138 -28 -185 l-12 -85 -110 -7 c-61 -3 -132 -11 -160 -17 -27 -6 -66 -14
-85 -17 -49 -9 -225 -60 -290 -84 -30 -12 -71 -27 -90 -34 -99 -38 -294 -144
-410 -224 -233 -160 -454 -386 -605 -617 -47 -70 -145 -241 -145 -251 0 -2
-16 -37 -35 -78 -39 -83 -93 -241 -124 -361 -26 -98 -61 -319 -61 -380 0 -50
9 -44 -110 -64 -36 -5 -119 -19 -185 -30 -66 -11 -150 -24 -186 -30 -37 -6
-82 -11 -101 -11 -35 0 -58 -14 -58 -36 0 -11 52 -23 170 -39 25 -4 88 -13
140 -21 52 -8 144 -21 205 -30 60 -8 115 -20 121 -25 7 -5 10 -19 7 -30 -11
-39 26 -272 64 -414 14 -49 28 -103 33 -120 10 -42 35 -104 83 -215 295 -676
908 -1166 1632 -1305 42 -8 111 -17 153 -20 152 -12 152 -12 152 -61 0 -19 4
-54 9 -77 5 -23 14 -73 20 -112 6 -38 18 -108 26 -155 7 -47 17 -114 21 -150
7 -68 18 -100 35 -100 15 0 28 44 39 133 10 84 28 207 58 402 l17 110 110 7
c373 23 807 195 1142 454 121 93 322 298 415 422 253 336 400 719 445 1162 l8
75 55 7 c30 5 111 17 180 29 146 23 227 36 290 44 94 12 101 15 98 38 -3 19
-12 23 -58 29 -67 8 -237 32 -430 61 l-145 22 -6 105 c-17 290 -132 644 -300
925 -243 404 -609 730 -1017 905 -53 23 -106 45 -117 50 -45 21 -240 79 -300
91 -132 25 -170 30 -259 39 -55 6 -103 13 -107 17 -5 5 -12 40 -17 78 -9 63
-46 306 -74 478 -9 55 -15 67 -30 67 -10 0 -21 -6 -23 -12z m65 -384 c5 -38
17 -112 25 -164 9 -52 22 -142 30 -200 18 -129 30 -203 55 -345 11 -60 25
-150 31 -200 6 -49 15 -106 20 -125 5 -19 9 -50 9 -67 0 -18 4 -52 10 -75 10
-45 37 -205 50 -298 4 -30 13 -80 18 -110 6 -30 18 -91 27 -135 8 -44 25 -142
37 -218 l21 -138 -158 -159 c-87 -87 -162 -165 -167 -174 -5 -9 -16 -16 -23
-16 -13 0 -15 162 -15 1228 0 1091 3 1283 16 1269 2 -2 8 -34 14 -73z m-170
-333 c0 -5 -9 -60 -19 -123 -11 -62 -22 -137 -26 -166 -4 -29 -12 -55 -19 -57
-6 -1 -45 -8 -86 -13 -245 -36 -479 -124 -688 -259 -87 -56 -211 -152 -246
-192 -25 -28 -30 -27 -87 14 -27 19 -54 35 -59 35 -20 0 -9 -33 25 -80 l35
-48 -58 -69 c-229 -270 -359 -547 -421 -898 l-16 -89 -80 -14 c-44 -8 -120
-22 -170 -32 -49 -10 -92 -16 -94 -14 -7 7 19 204 40 304 22 103 24 112 68
245 169 521 566 981 1061 1232 135 68 161 79 300 125 202 68 540 130 540 99z
m413 -5 c40 -8 92 -18 117 -21 165 -25 460 -132 637 -233 533 -302 915 -812
1047 -1397 27 -121 56 -292 56 -332 0 -23 -3 -25 -32 -19 -40 8 -207 35 -265
43 -24 3 -47 11 -52 17 -4 6 -14 53 -20 105 -36 285 -188 616 -401 870 l-70
83 42 60 c56 80 42 95 -40 39 l-60 -40 -98 82 c-261 217 -535 339 -914 405
l-45 8 -7 59 c-3 33 -15 107 -26 165 -11 58 -18 108 -16 112 8 12 68 9 147 -6z
m-488 -496 c4 -6 2 -25 -3 -43 -10 -31 -26 -123 -56 -317 -41 -260 -55 -360
-61 -410 -9 -82 -16 -89 -62 -58 -56 38 -153 98 -157 98 -3 0 -40 22 -83 48
-43 27 -103 62 -133 79 -91 50 -152 84 -210 117 -30 18 -70 38 -87 45 -19 8
-33 21 -33 30 0 17 77 80 195 159 146 98 395 201 565 233 36 6 72 16 80 20 21
11 38 11 45 -1z m530 -20 c33 -7 74 -16 90 -20 182 -54 346 -127 465 -206 176
-118 225 -157 215 -173 -3 -6 -34 -25 -68 -43 -34 -17 -127 -69 -207 -116 -80
-47 -181 -106 -225 -132 -44 -26 -114 -67 -155 -93 -51 -31 -78 -42 -86 -36
-7 5 -14 40 -18 77 -5 64 -11 102 -35 255 -6 37 -15 95 -20 130 -6 34 -12 71
-15 82 -2 11 -10 56 -16 100 -7 44 -18 100 -25 125 -15 55 -10 71 18 65 12 -2
49 -9 82 -15z m-1427 -429 c94 -63 189 -124 237 -151 17 -10 61 -36 99 -60 38
-23 83 -50 100 -60 17 -9 72 -41 121 -70 50 -29 112 -63 139 -77 55 -28 52 1
22 -218 -9 -60 -16 -111 -16 -112 0 -2 -4 -3 -8 -3 -11 0 -802 792 -802 802 0
17 25 6 108 -51z m2342 17 c0 -7 -9 -24 -20 -38 -11 -14 -20 -29 -20 -34 0 -4
-15 -29 -34 -55 -63 -87 -356 -584 -402 -683 -20 -42 -34 -46 -121 -29 -26 5
-83 15 -125 22 -43 6 -78 17 -78 22 0 6 148 160 329 341 181 182 358 361 392
399 63 67 79 78 79 55z m-2416 -169 c20 -39 78 -141 128 -228 207 -356 247
-427 253 -441 5 -13 -11 -18 -92 -28 -54 -7 -123 -17 -153 -22 -112 -21 -247
-43 -305 -50 -33 -5 -107 -18 -163 -29 -57 -12 -108 -19 -113 -15 -15 9 -11
37 20 157 51 192 109 331 203 487 49 80 167 240 178 240 4 0 24 -32 44 -71z
m1055 -14 c14 -93 15 -634 1 -669 -5 -15 -17 -26 -27 -26 -28 0 -83 38 -83 57
0 10 -7 27 -15 37 -18 24 -20 14 -3 -14 17 -26 3 -37 -21 -16 -28 26 -31 62
-10 137 10 38 19 90 19 116 0 30 6 53 17 65 14 16 15 22 4 40 -10 16 -10 26 0
52 7 17 18 36 25 41 6 6 17 39 23 75 15 82 43 180 52 180 4 0 12 -34 18 -75z
m1427 -22 c156 -217 230 -373 297 -633 41 -155 42 -179 8 -164 -23 10 -162 35
-406 74 -71 12 -148 25 -171 30 -23 5 -83 14 -135 21 -52 6 -98 15 -103 20 -5
5 12 41 41 86 28 43 62 98 76 123 29 53 46 84 117 205 71 122 80 138 130 230
47 87 59 105 69 105 4 0 39 -44 77 -97z m-1537 -795 c97 -95 176 -177 176
-181 0 -5 -477 -8 -1060 -8 -583 1 -1138 1 -1232 1 -101 0 -173 4 -173 9 0 6
21 13 48 16 26 3 115 17 197 30 83 13 188 29 235 35 89 11 177 26 245 40 22 4
76 13 120 19 44 6 125 18 180 27 55 8 127 19 160 24 33 5 89 14 125 20 36 6
90 15 120 20 154 24 196 31 258 45 37 8 108 22 157 30 50 8 124 21 165 29 41
8 81 15 89 15 7 1 93 -77 190 -171z m760 67 c39 -8 114 -19 168 -24 87 -8 153
-24 218 -50 11 -5 49 -14 85 -21 36 -6 69 -15 74 -20 5 -5 19 -4 32 2 13 6 27
9 30 5 10 -10 -6 -27 -27 -27 -10 0 -19 -4 -19 -9 0 -13 9 -13 -389 -18 -371
-4 -381 -3 -381 40 0 21 110 137 129 137 5 0 41 -7 80 -15z m1974 -291 c16 -3
27 -7 25 -9 -4 -5 -248 -45 -548 -90 -91 -14 -205 -32 -255 -40 -49 -9 -119
-20 -155 -25 -141 -20 -217 -32 -265 -40 -27 -5 -81 -14 -120 -20 -73 -11
-146 -23 -242 -40 -32 -5 -103 -19 -158 -30 -55 -12 -145 -28 -200 -36 -55 -8
-113 -19 -129 -24 -16 -6 -34 -10 -40 -10 -12 0 -366 346 -366 358 0 9 2414
15 2453 6z m-2520 -1152 c-1 -614 -2 -1172 -3 -1239 0 -75 -4 -123 -10 -123
-5 0 -10 10 -10 23 0 12 -13 103 -29 202 -16 99 -32 205 -36 235 -9 78 -33
223 -51 305 -8 39 -19 108 -24 155 -5 47 -18 144 -30 215 -11 72 -25 157 -30
190 -5 33 -14 87 -20 120 -5 33 -14 87 -19 120 -5 33 -16 94 -24 135 -17 86
-41 217 -61 340 l-14 84 172 178 c94 97 176 178 181 178 7 0 9 -378 8 -1118z
m-326 1051 c11 -4 14 -15 10 -38 -3 -18 -1 -37 5 -43 11 -11 -26 -37 -41 -28
-5 3 -16 -6 -25 -20 -33 -50 -67 -49 -366 12 -41 9 -98 18 -127 21 -38 3 -50
8 -47 18 6 14 -30 23 -86 23 -29 0 -100 24 -100 33 0 15 68 21 300 29 242 7
447 4 477 -7z m-1632 -37 c44 -8 99 -15 122 -16 23 0 48 -6 56 -14 8 -9 17
-46 21 -92 7 -85 30 -179 78 -319 76 -218 203 -434 357 -605 22 -25 41 -48 41
-52 0 -3 -16 -27 -35 -52 -60 -79 -43 -98 36 -41 27 19 53 35 57 35 4 0 23
-14 42 -32 116 -107 254 -201 409 -279 115 -57 331 -131 436 -148 98 -16 165
-32 166 -39 1 -4 3 -18 4 -32 2 -14 9 -54 15 -90 22 -130 30 -194 26 -206 -3
-8 -39 -6 -133 6 -479 65 -894 271 -1236 613 -311 311 -521 711 -596 1137 -26
149 -38 236 -33 244 5 9 47 5 167 -18z m4110 14 c9 -15 -24 -232 -57 -370 -17
-69 -47 -171 -68 -227 -139 -370 -348 -664 -655 -922 -308 -259 -682 -420
-1104 -476 -81 -10 -117 -12 -121 -4 -4 6 1 51 11 100 10 50 22 125 26 167 l8
77 110 17 c333 51 675 214 908 432 21 20 42 36 48 36 5 0 31 -16 58 -35 51
-37 81 -45 81 -21 0 8 -4 16 -8 18 -9 3 -72 93 -72 102 0 3 27 36 61 73 147
162 281 400 348 618 12 39 27 85 32 103 6 17 19 80 29 139 20 114 31 133 79
133 32 0 175 26 216 39 41 13 63 13 70 1z m-3689 -79 c34 -11 214 -42 409 -71
77 -11 160 -25 185 -30 25 -5 71 -12 103 -16 31 -3 60 -10 63 -15 3 -5 -18
-42 -46 -83 -27 -41 -50 -77 -50 -80 0 -3 -18 -35 -40 -71 -22 -36 -40 -67
-40 -70 0 -3 -18 -34 -40 -70 -22 -36 -40 -67 -40 -70 0 -2 -14 -28 -31 -57
-17 -29 -53 -96 -81 -150 -28 -54 -55 -98 -62 -98 -11 1 -41 39 -120 150 -41
58 -146 236 -146 248 0 4 -7 20 -15 35 -32 62 -112 319 -129 420 -7 36 -6 37
22 37 16 0 42 -4 58 -9z m3178 -48 c-4 -27 -12 -66 -19 -88 -7 -22 -16 -56
-20 -75 -11 -57 -83 -244 -124 -322 -76 -146 -217 -349 -240 -345 -8 1 -23 18
-34 37 -72 131 -310 545 -386 672 -8 15 -13 29 -11 32 3 2 41 9 85 15 132 17
217 30 280 41 33 6 87 15 120 21 33 5 83 13 110 18 28 5 79 14 115 21 35 6 66
13 69 16 2 2 17 4 32 4 28 0 29 -1 23 -47z m-1486 -65 c9 -9 15 -9 24 0 15 15
28 15 28 0 0 -16 71 -88 86 -88 7 0 15 -7 18 -16 3 -8 2 -12 -3 -9 -5 3 -13 0
-17 -6 -4 -7 1 -16 11 -22 16 -8 16 -11 4 -21 -14 -10 -39 -146 -53 -281 -2
-22 -21 -105 -42 -185 -29 -106 -43 -146 -55 -148 -9 -2 -20 5 -25 15 -9 20
-16 676 -7 736 5 39 12 44 31 25z m-698 -51 c77 -9 106 -17 108 -27 1 -8 -152
-170 -340 -360 -189 -190 -363 -366 -386 -392 -42 -47 -62 -59 -62 -37 0 6 43
78 95 160 52 82 103 163 113 181 10 18 30 52 45 75 15 24 27 45 27 49 0 3 8
18 19 32 25 37 122 205 156 272 39 79 40 79 83 69 20 -5 84 -15 142 -22z m992
-71 c50 -52 436 -440 591 -592 103 -102 187 -187 187 -190 0 -14 -39 1 -88 35
-72 48 -302 191 -308 191 -3 0 -25 14 -49 30 -24 17 -45 30 -47 30 -3 0 -54
30 -114 66 -60 36 -139 81 -176 100 -36 18 -69 38 -73 44 -3 5 -2 26 4 45 5
20 15 85 22 145 13 111 22 127 51 96z m258 -56 c0 -5 9 -10 20 -10 11 0 20 -4
20 -10 0 -17 -26 -11 -45 10 -10 11 -13 20 -7 20 7 0 12 -4 12 -10z m-1031
-377 c7 -54 16 -118 21 -143 4 -25 13 -79 20 -120 6 -41 15 -97 20 -125 5 -27
14 -81 20 -120 7 -38 15 -86 20 -105 5 -19 12 -57 16 -84 l7 -49 -59 8 c-33 3
-79 13 -104 20 -25 8 -72 21 -105 31 -85 24 -236 90 -330 144 -146 85 -291
193 -280 210 3 5 45 30 93 56 48 26 128 72 177 102 50 30 104 63 120 72 36 21
174 102 270 158 39 23 73 42 76 42 3 0 11 -44 18 -97z m880 -17 c51 -31 96
-56 98 -56 3 0 17 -8 31 -19 15 -10 44 -28 65 -40 20 -11 54 -31 75 -43 92
-52 162 -91 225 -123 37 -20 67 -37 67 -40 0 -2 -30 -28 -67 -57 -167 -132
-351 -230 -548 -293 -119 -37 -253 -68 -270 -61 -16 6 -14 30 5 86 5 14 14 61
20 105 6 44 15 100 20 125 5 25 18 106 30 180 45 289 53 335 63 342 6 3 29 -6
51 -22 23 -16 83 -54 135 -84z m-409 -258 c-1 -28 -2 -30 -11 -15 -6 10 -8 25
-5 33 9 24 16 16 16 -18z"/>
<path d="M6843 4607 c-2 -4 7 -11 20 -16 30 -12 37 -47 35 -195 -1 -133 -4
-145 -35 -152 -13 -4 -22 -11 -20 -17 2 -6 63 -11 166 -12 184 -2 177 -5 188
84 7 60 -10 74 -32 27 -20 -41 -47 -60 -98 -70 -69 -13 -77 -5 -77 79 0 41 3
76 8 78 14 9 50 -29 57 -62 4 -18 12 -30 18 -28 8 2 12 35 12 95 0 95 -11 117
-30 61 -11 -32 -38 -54 -55 -44 -6 3 -10 35 -10 71 0 75 7 82 78 68 39 -8 49
-15 66 -47 25 -47 40 -43 44 11 6 81 3 82 -174 79 -86 -1 -158 -5 -161 -10z"/>
<path d="M3799 1325 c-38 -20 -63 -74 -55 -117 8 -46 40 -77 120 -117 75 -38
96 -70 71 -107 -24 -37 -84 -33 -124 6 -16 17 -33 40 -37 53 -7 24 -24 38 -36
31 -4 -3 -8 -34 -8 -70 0 -67 15 -89 43 -66 9 8 26 6 58 -4 123 -41 232 71
170 173 -13 20 -45 45 -89 68 -39 20 -78 45 -87 55 -21 24 -13 53 21 71 23 12
30 11 62 -6 20 -11 44 -36 55 -57 10 -21 23 -35 28 -32 10 6 13 117 3 127 -3
3 -15 1 -25 -6 -15 -9 -23 -9 -39 1 -26 16 -99 15 -131 -3z"/>
</g>
</svg>
